<svg width="32" height="32" viewBox="0 0 32 32" fill="none" xmlns="http://www.w3.org/2000/svg">
<path d="M27.2 1.6H24C23.5757 1.6 23.1687 1.76857 22.8686 2.06863C22.5686 2.36869 22.4 2.77565 22.4 3.2V30.3872H28.8V3.2C28.8 2.77565 28.6314 2.36869 28.3314 2.06863C28.0313 1.76857 27.6243 1.6 27.2 1.6ZM17.6 11.2H14.4C13.9757 11.2 13.5687 11.3686 13.2686 11.6686C12.9686 11.9687 12.8 12.3757 12.8 12.8V30.3872H19.2V12.8C19.2 12.3757 19.0314 11.9687 18.7314 11.6686C18.4313 11.3686 18.0243 11.2 17.6 11.2ZM8 20.8H4.8C4.37565 20.8 3.96869 20.9686 3.66863 21.2686C3.36857 21.5687 3.2 21.9757 3.2 22.4V30.3872H9.6V22.4C9.6 21.9757 9.43143 21.5687 9.13137 21.2686C8.83131 20.9686 8.42435 20.8 8 20.8Z" fill="#1F9751"/>
</svg>
